<svg width="11" height="13" viewBox="0 0 11 13" fill="none" xmlns="http://www.w3.org/2000/svg">
<g clip-path="url(#clip0)">
<path d="M6.72425 11.9154L9.62612 8.32785C9.80317 8.10896 9.80317 7.75397 9.62612 7.53509C9.44904 7.31615 9.16197 7.31615 8.98488 7.53509L6.85704 10.1657L6.85704 0.584483C6.85704 0.274921 6.65402 0.0239256 6.40363 0.0239256C6.15327 0.0239256 5.95021 0.274921 5.95021 0.584483L5.95021 10.1657L3.82237 7.53517C3.64528 7.31624 3.35821 7.31624 3.18113 7.53517C3.09266 7.6446 3.04833 7.7881 3.04833 7.93156C3.04833 8.07501 3.09266 8.21847 3.18113 8.32794L6.083 11.9154C6.26009 12.1343 6.54716 12.1343 6.72425 11.9154Z" fill="#03A5A5"/>
</g>
<defs>
<clipPath id="clip0">
<rect width="12.0557" height="9.75147" fill="white" transform="translate(10.2793 0.0239258) rotate(90)"/>
</clipPath>
</defs>
</svg>
