<svg width="8" height="13" viewBox="0 0 8 13" fill="none" xmlns="http://www.w3.org/2000/svg">
<path d="M4.60808 12.7292L7.58392 9.05023C7.76548 8.82576 7.76548 8.46173 7.58392 8.23726C7.40232 8.01275 7.10794 8.01275 6.92634 8.23726L4.74427 10.9349L4.74427 1.10951C4.74427 0.79206 4.53607 0.534668 4.27929 0.534668C4.02255 0.534668 3.81432 0.79206 3.81432 1.10951L3.81432 10.9349L1.63225 8.23735C1.45065 8.01284 1.15626 8.01284 0.974665 8.23735C0.883939 8.34956 0.838484 8.49672 0.838484 8.64384C0.838484 8.79095 0.883939 8.93807 0.974665 9.05032L3.9505 12.7292C4.1321 12.9537 4.42648 12.9537 4.60808 12.7292Z" fill="#D60100"/>
</svg>
