<svg width="36" height="36" viewBox="0 0 36 36" fill="none" xmlns="http://www.w3.org/2000/svg">
<path d="M36 31.7812C36 32.558 35.3705 33.1875 34.5938 33.1875C33.817 33.1875 33.1875 32.558 33.1875 31.7812C33.1875 31.0059 32.5566 30.375 31.7812 30.375C31.0059 30.375 30.375 31.0059 30.375 31.7812C30.375 32.5566 31.0059 33.1875 31.7812 33.1875C32.558 33.1875 33.1875 33.817 33.1875 34.5938C33.1875 35.3705 32.558 36 31.7812 36C29.4549 36 27.5625 34.1076 27.5625 31.7812C27.5625 30.8537 27.8641 29.9957 28.3733 29.2986L23.9321 22.7964C22.5409 23.5709 21.0341 24.0595 19.4766 24.2441V27.8297C21.0764 28.4296 22.2188 29.9743 22.2188 31.7812C22.2188 32.558 21.5892 33.1875 20.8125 33.1875C20.0358 33.1875 19.4062 32.558 19.4062 31.7812C19.4062 31.0059 18.7754 30.375 18 30.375C17.2246 30.375 16.5938 31.0059 16.5938 31.7812C16.5938 32.5566 17.2246 33.1875 18 33.1875C18.7767 33.1875 19.4062 33.817 19.4062 34.5938C19.4062 35.3705 18.7767 36 18 36C15.6736 36 13.7812 34.1076 13.7812 31.7812C13.7812 29.9218 14.9908 28.3409 16.6641 27.7806V24.2463C15.0436 24.059 13.5192 23.5519 12.1555 22.79L7.63 29.3036C8.1373 29.9998 8.4375 30.8559 8.4375 31.7812C8.4375 32.558 7.80798 33.1875 7.03125 33.1875C6.25452 33.1875 5.625 32.558 5.625 31.7812C5.625 31.0059 4.99411 30.375 4.21875 30.375C3.44339 30.375 2.8125 31.0059 2.8125 31.7812C2.8125 32.5566 3.44339 33.1875 4.21875 33.1875C4.99548 33.1875 5.625 33.817 5.625 34.5938C5.625 35.3705 4.99548 36 4.21875 36C1.8924 36 0 34.1076 0 31.7812C0 29.4549 1.8924 27.5625 4.21875 27.5625C4.59778 27.5625 4.96472 27.6136 5.31436 27.7075L9.87424 21.1443C7.43747 18.9185 5.90625 15.7168 5.90625 12.1641C5.90625 5.45663 11.3629 0 18.0703 0C24.7777 0 30.2344 5.45663 30.2344 12.1641C30.2344 13.5544 30.0015 14.9186 29.542 16.2186C29.283 16.9508 28.4796 17.3345 27.7473 17.0758C27.0151 16.817 26.6314 16.0137 26.8901 15.2814C27.2431 14.2831 27.4219 13.2344 27.4219 12.1641C27.4219 7.00763 23.2267 2.8125 18.0703 2.8125C12.9139 2.8125 8.71875 7.00763 8.71875 12.1641C8.71875 17.3205 12.9139 21.5156 18.0703 21.5156C20.0064 21.5156 21.8872 20.9015 23.5094 19.7397C23.817 19.5191 24.2004 19.4323 24.5728 19.498C24.9456 19.5639 25.276 19.777 25.4894 20.0896L30.6914 27.7059C31.0394 27.613 31.4044 27.5625 31.7812 27.5625C34.1076 27.5625 36 29.4549 36 31.7812ZM14.8112 11.2887C14.427 10.688 14.2031 9.97531 14.2031 9.21094C14.2031 7.07849 15.9379 5.34375 18.0703 5.34375C20.2028 5.34375 21.9375 7.07849 21.9375 9.21094C21.9375 9.94785 21.7301 10.637 21.3709 11.2239C22.6527 12.0608 23.6041 13.3868 23.931 14.9648C24.0645 15.6091 23.903 16.271 23.4882 16.7805C23.0757 17.2875 22.4646 17.5781 21.8117 17.5781H14.4695C13.8167 17.5781 13.2056 17.2875 12.7928 16.7805C12.378 16.271 12.2168 15.6091 12.3503 14.9648C12.6686 13.4278 13.5797 12.1286 14.8112 11.2887ZM20.9067 14.7656C20.3917 13.7541 19.3409 13.0781 18.1708 13.0781H18.1104C16.9404 13.0781 15.8895 13.7541 15.3743 14.7656H20.9067ZM17.0156 9.21094C17.0156 9.79239 17.4889 10.2656 18.0703 10.2656C18.6518 10.2656 19.125 9.79239 19.125 9.21094C19.125 8.62949 18.6518 8.15625 18.0703 8.15625C17.4889 8.15625 17.0156 8.62949 17.0156 9.21094Z" fill="#BAC1CF"/>
</svg>
