<svg width="32" height="31" viewBox="0 0 32 31" fill="none" xmlns="http://www.w3.org/2000/svg">
<path d="M31.6367 14.1061L18.6124 1.00887C18.5957 0.992008 18.5784 0.975649 18.5607 0.95979C17.1386 -0.315881 14.9895 -0.320439 13.5619 0.949238C13.5441 0.965035 13.5269 0.981331 13.5101 0.998065L0.366993 14.1022C-0.121632 14.5895 -0.122445 15.3802 0.365243 15.8683C0.852993 16.3564 1.64443 16.3572 2.13299 15.8701L3.12499 14.881V25.663C3.12499 28.4173 5.36799 30.6581 8.12499 30.6581H12.625C13.3154 30.6581 13.875 30.099 13.875 29.4093V19.2319H18.25V29.4093C18.25 30.099 18.8096 30.6581 19.5 30.6581H23.875C26.632 30.6581 28.875 28.4173 28.875 25.663C28.875 24.9733 28.3154 24.4143 27.625 24.4143C26.9346 24.4143 26.375 24.9733 26.375 25.663C26.375 27.0402 25.2535 28.1605 23.875 28.1605H20.75V17.9831C20.75 17.2935 20.1904 16.7344 19.5 16.7344H12.625C11.9346 16.7344 11.375 17.2935 11.375 17.9831V28.1605H8.12499C6.74649 28.1605 5.62499 27.0402 5.62499 25.663V12.4262C5.62499 12.4137 5.6248 12.4012 5.62443 12.3889L15.2466 2.79522C15.7149 2.39793 16.4018 2.39942 16.8683 2.79865L26.375 12.3585V19.4192C26.375 20.1089 26.9346 20.668 27.625 20.668C28.3154 20.668 28.875 20.1089 28.875 19.4192V14.8725L29.8632 15.8663C30.1076 16.112 30.4287 16.2349 30.75 16.2349C31.0686 16.2349 31.3872 16.114 31.631 15.8721C32.1207 15.386 32.1234 14.5953 31.6367 14.1061Z" fill="white"/>
</svg>
