<svg width="32" height="32" viewBox="0 0 32 32" fill="none" xmlns="http://www.w3.org/2000/svg">
<path d="M22.6939 9.23867C22.3302 8.87686 21.7821 8.77424 21.312 8.97955L7.437 15.042C6.97244 15.245 6.67644 15.7086 6.68782 16.2154C6.69913 16.7224 7.01557 17.1722 7.48875 17.3542L12.6577 19.3422L14.6213 24.4477C14.9294 25.2481 15.6064 25.3125 15.8136 25.3125C15.8149 25.3125 15.8163 25.3125 15.8177 25.3125C16.3151 25.3104 16.764 25.0136 16.9606 24.5567L22.9606 10.6192C23.1635 10.1479 23.0578 9.60055 22.6939 9.23867ZM15.8775 20.75C15.496 19.758 15.0897 18.7014 14.7916 17.9263C14.6646 17.5962 14.4038 17.3352 14.0736 17.2083L11.228 16.1138L19.4129 12.5375L15.8775 20.75Z" fill="#BAC1CF"/>
<path d="M27.3137 4.68625C24.2917 1.66431 20.2738 0 16 0C11.7262 0 7.70831 1.66431 4.68625 4.68625C1.66431 7.70831 0 11.7262 0 16C0 20.2738 1.66431 24.2917 4.68625 27.3137C7.70831 30.3357 11.7262 32 16 32C18.9258 32 21.7886 31.2026 24.2789 29.6942C24.8693 29.3364 25.0581 28.5678 24.7004 27.9774C24.3426 27.3868 23.574 27.1982 22.9836 27.5559C20.884 28.8278 18.4691 29.5 16 29.5C8.55606 29.5 2.5 23.4439 2.5 16C2.5 8.55606 8.55606 2.5 16 2.5C23.4439 2.5 29.5 8.55606 29.5 16C29.5 18.6618 28.7084 21.2528 27.2109 23.4928C26.8272 24.0666 26.9814 24.8429 27.5553 25.2266C28.1292 25.6103 28.9055 25.4561 29.2891 24.8822C31.0626 22.2296 32 19.1581 32 16C32 11.7262 30.3357 7.70831 27.3137 4.68625Z" fill="#BAC1CF"/>
</svg>
