<svg width="30" height="30" viewBox="0 0 30 30" fill="none" xmlns="http://www.w3.org/2000/svg">
<circle cx="15" cy="15" r="15" fill="#EDF4FC"/>
<path d="M23.4853 6.51469C21.2188 4.24823 18.2053 3 15 3C11.7947 3 8.78123 4.24823 6.51469 6.51469C4.24823 8.78123 3 11.7947 3 15C3 18.2053 4.24823 21.2188 6.51469 23.4853C8.78123 25.7518 11.7947 27 15 27C17.1944 27 19.3414 26.402 21.2092 25.2706C21.652 25.0023 21.7935 24.4259 21.5253 23.983C21.257 23.5401 20.6805 23.3986 20.2377 23.6669C18.663 24.6208 16.8518 25.125 15 25.125C9.41705 25.125 4.875 20.583 4.875 15C4.875 9.41705 9.41705 4.875 15 4.875C20.583 4.875 25.125 9.41705 25.125 15C25.125 16.9964 24.5313 18.9396 23.4082 20.6196C23.1204 21.05 23.236 21.6322 23.6664 21.92C24.0969 22.2077 24.6791 22.0921 24.9668 21.6617C26.297 19.6722 27 17.3686 27 15C27 11.7947 25.7518 8.78123 23.4853 6.51469Z" fill="#006FBA"/>
<path d="M12.75 10.5L19.3125 14.875L12.75 19.25V10.5Z" stroke="#006FBA" stroke-width="2" stroke-linecap="round" stroke-linejoin="round"/>
</svg>
